Coordinates
version=1
nRows=14
nColumns=24
inDegrees=yes

Units are S.I. units (second, meters, Newtons, ...)
Angles are in degrees.

endheader
time	pelvis_tilt	pelvis_list	pelvis_rotation	pelvis_tx	pelvis_ty	pelvis_tz	hip_flexion_r	hip_adduction_r	hip_rotation_r	knee_angle_r	ankle_angle_r	subtalar_angle_r	mtp_angle_r	hip_flexion_l	hip_adduction_l	hip_rotation_l	knee_angle_l	ankle_angle_l	subtalar_angle_l	mtp_angle_l	lumbar_extension	lumbar_bending	lumbar_rotation
      2.00500000	     29.78516368	     -2.59754529	      2.70938154	      0.41636408	      0.92165821	      0.01628083	    -31.20519895	      5.35811469	     16.59571639	      2.37906791	      0.26304682	    -15.53665848	     28.22370410	    -17.67254150	     -3.59495902	     -2.90397964	    -54.88227135	      1.80153040	    -19.44672422	     17.55630659	    -38.38127727	      5.02560960	      4.23369602
      2.01000000	     29.81117582	     -2.43621607	      2.56769001	      0.42154312	      0.92192771	      0.01654313	    -31.82846199	      5.07475734	     16.91526629	      2.83170436	      0.24625243	    -15.85432399	     28.18133947	    -17.03655919	     -3.19088910	     -2.56017409	    -54.15670569	      2.39825245	    -19.78368862	     17.61225039	    -38.47072273	      4.74515660	      4.28784632
      2.01500000	     29.80498447	     -2.34779496	      2.53376056	      0.42682845	      0.92200972	      0.01658009	    -32.44037605	      4.89972035	     17.37961280	      3.32629385	      0.03768737	    -16.67532700	     28.06851754	    -16.37091119	     -2.86622994	     -2.10774463	    -53.38169717	      2.73443157	    -20.17987277	     17.71223771	    -38.50750785	      4.59247326	      4.22946614
      2.02000000	     29.86008311	     -2.20208608	      2.51059793	      0.43211306	      0.92211649	      0.01664073	    -33.14151053	      4.67853395	     17.79740401	      3.84411765	     -0.00740455	    -17.16481424	     27.99489749	    -15.82287839	     -2.46050117	     -1.54493057	    -52.47697357	      3.11294787	    -20.53384006	     17.65248028	    -38.59907259	      4.40100717	      4.10731224
      2.02500000	     29.81987793	     -2.07140040	      2.39697041	      0.43745639	      0.92202887	      0.01689283	    -33.83556129	      4.38340854	     18.51320311	      4.64802659	     -0.55841726	    -18.61542411	     27.85250137	    -15.19140264	     -2.07527555	     -1.08932300	    -51.51219088	      3.55422818	    -20.74110558	     17.55934587	    -38.59761004	      4.16163754	      4.12116823
      2.03000000	     29.79395227	     -1.95989767	      2.34206758	      0.44257667	      0.92187486	      0.01694757	    -34.52953321	      4.10459974	     19.28178072	      5.41785467	     -1.05827550	    -19.96969423	     27.76381421	    -14.51594816	     -1.74369953	     -0.61295372	    -50.56940155	      3.86979479	    -21.15934645	     17.54423435	    -38.64327786	      3.98747837	      4.12750397
      2.03500000	     29.77529334	     -1.88622074	      2.34790053	      0.44780976	      0.92162049	      0.01691905	    -35.18608536	      3.91607137	     19.69113407	      6.06715733	     -1.25405029	    -20.50439917	     27.74047395	    -13.86511292	     -1.44604769	     -0.06174155	    -49.60162644	      4.06356078	    -21.54636559	     17.60161546	    -38.67919221	      3.87561831	      4.07573044
      2.04000000	     29.73550231	     -1.79887483	      2.27420958	      0.45297535	      0.92131162	      0.01695028	    -35.84359262	      3.67153932	     20.25540829	      6.78859233	     -1.66937747	    -21.54352919	     27.60531961	    -13.26124539	     -1.11801800	      0.43894391	    -48.51686596	      4.20972430	    -21.95714435	     17.86237708	    -38.68869749	      3.71881950	      4.03184759
      2.04500000	     29.66414585	     -1.70580584	      2.22345857	      0.45816778	      0.92091450	      0.01693805	    -36.33552129	      3.46708405	     20.47028675	      7.20479310	     -1.48793787	    -21.67297733	     27.61566759	    -12.69064705	     -0.80798427	      0.97138045	    -47.30159378	      4.67806703	    -21.95090471	     17.97798660	    -38.67024699	      3.55780870	      3.97058555
      2.05000000	     29.68678334	     -1.62592367	      2.18575587	      0.46323293	      0.92054873	      0.01687866	    -37.02956164	      3.23423934	     20.86422555	      7.87645659	     -1.74442332	    -22.28383169	     27.50764146	    -12.24622503	     -0.47794785	      1.57807956	    -45.97354316	      4.42001390	    -22.91355150	     18.27121172	    -38.76572699	      3.42922036	      3.99181075
      2.05500000	     29.69942942	     -1.55769405	      2.21286902	      0.46838496	      0.92009643	      0.01676303	    -37.72974523	      3.06493290	     20.99125175	      8.58952032	     -2.00604972	    -22.65278032	     27.42827650	    -11.76794761	     -0.22737526	      2.20851606	    -44.65184505	      4.13670877	    -23.89424248	     18.49611146	    -38.83756784	      3.33064458	      3.89352325
      2.06000000	     29.75151820	     -1.51443416	      2.20594894	      0.47346632	      0.91963982	      0.01675484	    -38.43362573	      2.93657658	     21.05670605	      9.20167913	     -2.22522571	    -22.95974897	     27.36301268	    -11.40403742	     -0.01353129	      2.83930671	    -43.19323698	      4.35758307	    -24.43078915	     18.63850438	    -38.95482849	      3.25389903	      3.85131563
      2.06500000	     29.71509396	     -1.48064695	      2.21976761	      0.47856282	      0.91898210	      0.01671458	    -39.00127188	      2.85123544	     20.94915199	      9.72515949	     -2.24075650	    -23.14727819	     27.38603179	    -10.95361747	      0.17333345	      3.43401444	    -41.75734753	      4.43707803	    -24.75691211	     18.76337704	    -38.98540450	      3.16752855	      3.83429343
      2.07000000	     29.63186774	     -1.51889040	      2.19986718	      0.48370382	      0.91825431	      0.01671556	    -39.48194994	      2.83131649	     20.96011104	     10.15115800	     -2.05938034	    -23.28210748	     27.39588296	    -10.42871195	      0.24324193	      3.93477748	    -40.39603998	      4.47509967	    -24.73099744	     18.81348855	    -38.95624440	      3.12764196	      3.85947589
